<svg xmlns="http://www.w3.org/2000/svg" width="900" height="460" viewBox="0 0 900 460"><rect width="900" height="460" fill="#f3f6fa"/><rect x="0" y="360" width="900" height="100" fill="#e6ecf3"/><rect x="250" y="60" width="400" height="220" rx="14" fill="#fff" stroke="#c9d4e2" stroke-width="3"/><rect x="290" y="100" width="150" height="16" rx="8" fill="#1f6fd9"/><rect x="290" y="136" width="260" height="10" rx="5" fill="#e3e8ef"/><rect x="290" y="160" width="220" height="10" rx="5" fill="#e3e8ef"/><circle cx="560" cy="210" r="40" fill="#8fb4ea"/><rect x="440" y="280" width="20" height="80" fill="#c9d4e2"/><g transform="translate(150 190) scale(1)"><circle cx="40" cy="30" r="26" fill="#dfe5ec"/><path d="M8 170 V95 a32 32 0 0 1 64 0 V170 Z" fill="#1f6fd9"/></g><g transform="translate(690 215.5) scale(0.85)"><circle cx="40" cy="30" r="26" fill="#dfe5ec"/><path d="M8 170 V95 a32 32 0 0 1 64 0 V170 Z" fill="#8fb4ea"/></g><g transform="translate(770 215.5) scale(0.85)"><circle cx="40" cy="30" r="26" fill="#dfe5ec"/><path d="M8 170 V95 a32 32 0 0 1 64 0 V170 Z" fill="#5b8fdc"/></g><text x="40" y="430" font-family="PingFang SC, Hiragino Sans GB, Microsoft YaHei, Noto Sans CJK SC, sans-serif" font-size="18" fill="#6b7785">PROJECT NEXUS · 示意插图</text></svg>